# xmcd
#
# Track frame offsets: 
#        150
#        14522
#        29817
#        48702
#        63840
#        75460
#        92307
#        106887
#        120182
#        132180
#        147337
#        160570
#        179740
#        195217
#        209725
#        220312
#        226735
#        245325
#        262757
#        284605
#
# Disc length: 4081 seconds
#
# Revision: 1
# Processed by: cddbd v1.5.2PL0 Copyright (c) Steve Scherf et al.
# Submitted via: ExactAudioCopy v0.90b4
#
DISCID=130fef14
DTITLE=Various Artist - 20 Best of Jigs, Reels and Hornpipes of Ireland
DYEAR=1994
DGENRE=Irish Folk
TTITLE0=The Duggans - The Jigs of Slurs and Collin's Jig
TTITLE1=P. J. Hernon - Stack of Wheat and Stack of Barley and Johnny Will 
TTITLE1=You Marry Me
TTITLE2=Johnny Connolly - The Manson's Apron
TTITLE3=Parsons Hat - Road to Granard and Gallagher's Frolics and Out on t
TTITLE3=he Ocean
TTITLE4=Iorras Aithneach and Pádraig Mac Donncha - Inis Caltrach and Toss 
TTITLE4=the Feathers
TTITLE5=Martin Donohoe - Westland and The Guns of the Magnificent Seven
TTITLE6=Tomás Ceannabháin - Cliff Hornpipe and Belfast Hornpipe and Sweeps
TTITLE6=Hornpipe
TTITLE7=The Duggans - The Wise Maid and Flogging Reel
TTITLE8=Parsons Hat - The Exile's Jig and Cuca-Nandy-Nandy
TTITLE9=John Faulkner - Le Reel du Pendu (The Hangman's Reel)
TTITLE10=P. J. Hernon - The First House in Connaught and Miss McLeod's
TTITLE11=The Duggans - Two Slips and O'Carolan's Draught
TTITLE12=Martin Donohoe - Porthole of the Kelp and Kate O'Brien's
TTITLE13=Johnny Connolly - Port Chúil Aodha and An Rógaire Dubh
TTITLE14=The Duggans - The Hunter's House and The Whistler of Rosslea
TTITLE15=Sonaí Choilm Learaí - The High Reel
TTITLE16=The Duggans - Langstroms Pony and Lark in the Morning
TTITLE17=Parsons Hat - The Peelers's Jacket and The Laurel Bush and The Ba
TTITLE17=g of Spuds
TTITLE18=Martin Donohoe - Daithí and Kinnegad Slasher and John D. McGurk's
TTITLE19=The Duggans - Croinin's and The Maple Tree and The Downfall of Pa
TTITLE19=ris
EXTD=
EXTT0=
EXTT1=
EXTT2=
EXTT3=
EXTT4=
EXTT5=
EXTT6=
EXTT7=
EXTT8=
EXTT9=
EXTT10=
EXTT11=
EXTT12=
EXTT13=
EXTT14=
EXTT15=
EXTT16=
EXTT17=
EXTT18=
EXTT19=
PLAYORDER=
